<?xml version="1.0" standalone="no"?>
<!DOCTYPE svg PUBLIC "-//W3C//DTD SVG 20010904//EN" "http://www.w3.org/TR/2001/REC-SVG-20010904/DTD/svg10.dtd">
<svg version="1.0" xmlns="http://www.w3.org/2000/svg" width="500.000000pt" height="500.000000pt" viewBox="0 0 500.000000 500.000000" preserveAspectRatio="xMidYMid meet">

<g transform="translate(0.000000,500.000000) scale(0.100000,-0.100000)" fill="#FFFFFF" stroke="none">
  <path d="M1573 3635 c-117 -32 -218 -96 -297 -187 -55 -62 -118 -187 -143 -278 -27 -102 -25 -312 5 -415 32 -111 77 -190 147 -261 95 -97 205 -144 371 -159 70 -7 84 -12 118 -41 21 -18 74 -51 116 -74 97 -50 170 -127 254 -266 80 -133 255 -354 315 -398 26 -19 70 -45 97 -56 98 -42 405 -150 427 -150 56 0 236 137 297 225 46 66 139 260 230 475 45 107 88 205 96 218 14 22 16 22 47 6 18 -9 69 -53 114 -97 56 -54 84 -75 87 -66 13 34 26 111 32 185 12 143 -28 288 -99 362 -18 19 -64 56 -103 83 -103 72 -118 113 -53 146 l24 13 -23 0 c-13 0 -76 -21 -140 -46 -178 -71 -233 -57 -292 70 l-27 59 -43 -58 c-40 -54 -44 -57 -57 -39 -45 62 -43 197 6 296 44 89 143 185 245 238 43 22 81 39 84 36 2 -3 -21 -29 -52 -57 -32 -29 -71 -73 -89 -98 l-31 -46 58 52 c104 92 228 142 395 159 88 8 83 21 -22 55 -55 18 -93 23 -162 23 -148 -2 -264 -52 -375 -163 -113 -113 -164 -243 -159 -402 l3 -87 -52 -47 c-98 -89 -140 -216 -127 -390 14 -180 14 -180 -15 -178 -14 2 -80 7 -148 11 -68 5 -128 14 -134 20 -7 7 6 31 45 79 115 142 175 292 184 458 23 415 -289 760 -638 706 -38 -6 -73 -12 -77 -14 -4 -1 -28 13 -53 30 -77 53 -144 75 -244 79 -59 3 -108 -1 -142 -11z m-153 -182 c-138 -146 -195 -278 -207 -480 -7 -120 9 -201 64 -330 42 -99 39 -125 -5 -55 -82 126 -112 225 -112 367 0 171 56 331 153 441 49 54 171 154 190 154 5 0 -32 -44 -83 -97z m442 -137 c-112 -116 -157 -194 -191 -327 -45 -176 -35 -295 40 -483 22 -54 37 -101 35 -103 -11 -11 -97 139 -122 212 -24 69 -28 96 -28 195 0 195 55 341 173 463 55 57 170 147 188 147 3 0 -40 -47 -95 -104z m474 -92 c59 -28 132 -101 165 -165 67 -131 66 -308 -3 -443 -32 -62 -113 -141 -170 -166 -262 -112 -523 148 -469 466 16 93 50 163 107 225 109 116 239 145 370 83z m929 -434 c19 -12 43 -35 52 -51 20 -33 33 -37 33 -10 0 10 7 24 15 31 23 19 56 -16 96 -103 31 -66 33 -80 33 -167 -1 -95 -10 -144 -60 -303 -24 -75 -26 -78 -43 -63 -17 16 -19 12 -29 -69 -20 -155 -82 -288 -173 -370 -51 -45 -63 -43 -85 20 -6 17 -8 16 -15 -11 -19 -68 -109 -116 -243 -130 -117 -12 -227 26 -342 117 -59 47 -214 209 -214 224 0 5 42 5 93 2 l92 -7 -84 34 c-96 39 -196 105 -260 170 l-44 45 39 6 c-88 14 -167 38 -228 67 l-52 24 -45 -19 c-31 -14 -85 -22 -175 -29 -212 -15 -281 -46 -398 -177 -43 -48 -47 -38 -13 33 -30 65 -66 107 -121 142 -25 15 -45 31 -45 35 0 4 11 19 24 34 l23 28 43 -36 c53 -46 102 -56 167 -34 62 21 135 75 173 128 26 35 76 165 67 174 -1 2 -24 -24 -50 -57 -26 -32 -71 -78 -100 -100 -138 -110 -237 -105 -312 15 -27 45 -30 57 -30 135 0 74 4 93 27 138 71 135 252 201 363 133z m479 -192 c35 -35 71 -120 87 -202 12 -63 12 -116 -1 -116 -16 0 -143 132 -178 184 -36 56 -44 123 -16 150 26 27 72 20
108 -16z"/>
<path d="M2203 2935 c-32 -22 -56 -92 -48 -142 12 -84 100 -134 152 -85 10 9
14 14 9 10 -14 -11 -64 -10 -87 2 -25 14 -49 62 -49 100 0 38 24 86 49 100 23
12 73 13 87 3 5 -5 1 0 -9 10 -23 21 -75 22 -104 2z"/>
</g>
</svg>
